<?xml version="1.0" encoding="UTF-8"?>
<svg version="1.1" xmlns="http://www.w3.org/2000/svg" width="1024" height="1024">
<path d="M0 0 C337.92 0 675.84 0 1024 0 C1024 337.92 1024 675.84 1024 1024 C686.08 1024 348.16 1024 0 1024 C0 686.08 0 348.16 0 0 Z " fill="none" transform="translate(0,0)"/>
<path d="M0 0 C8.89100115 2.08073595 17.65380756 3.96584868 26.72875977 5.06005859 C29.25268555 5.42822266 29.25268555 5.42822266 31.25268555 6.42822266 C56.92615696 11.15064221 87.15420647 0.38626274 112.1394043 -5.76708984 C128.0919979 -9.69465642 144.15365643 -12.88112077 160.62768555 -13.13427734 C161.54759277 -13.16102539 162.4675 -13.18777344 163.4152832 -13.21533203 C172.00408344 -13.16827011 178.7674557 -10.16722826 185.0612793 -4.32958984 C188.63277146 -0.45794593 190.98910194 3.85786557 193.31518555 8.55322266 C193.7429126 9.39216064 194.17063965 10.23109863 194.61132812 11.09545898 C198.00209493 17.7929134 201.22335879 24.55949847 204.25268555 31.42822266 C204.74639648 32.53939453 205.24010742 33.65056641 205.7487793 34.79541016 C211.2783929 47.30757586 216.61310137 59.90630535 221.99291992 72.48339844 C223.41130112 75.79900192 224.83152718 79.1138088 226.25268555 82.42822266 C230.7425462 81.00520671 233.62409368 78.5183168 236.94018555 75.30322266 C241.32042281 71.17650395 245.77836315 67.27946132 250.5222168 63.56884766 C252.55826537 61.97263218 254.57265925 60.36033418 256.5769043 58.72509766 C271.98563637 46.18189303 287.77818269 34.92317167 305.25268555 25.42822266 C306.19934082 24.91308105 307.14599609 24.39793945 308.12133789 23.8671875 C338.17986007 7.6168143 338.17986007 7.6168143 346.25268555 8.42822266 C355.72544595 17.32687637 357.09547484 32.90731284 357.52490234 45.18896484 C357.63427276 50.50212477 357.62940462 55.81300683 357.58886719 61.12695312 C357.56541956 64.39560093 357.56831245 67.66341881 357.57495117 70.93212891 C357.5494768 90.44540805 356.3677396 109.92722964 353.50268555 129.24072266 C353.33567139 130.38686035 353.16865723 131.53299805 352.99658203 132.71386719 C351.01676388 145.74641283 348.18156857 158.58171712 345.25268555 171.42822266 C344.7535442 173.64426866 344.25483594 175.86041226 343.7565918 178.07666016 C342.60183106 183.1969388 341.43218283 188.31358844 340.25268555 193.42822266 C341.40639648 193.64865234 342.56010742 193.86908203 343.7487793 194.09619141 C350.32840949 195.56359094 356.66011739 197.79912324 363.03393555 199.96557617 C367.00061179 201.31341404 370.97254265 202.645607 374.9440918 203.97900391 C375.77554718 204.25849884 376.60700256 204.53799377 377.46365356 204.82595825 C388.88110143 208.65673633 400.34246546 212.35295858 411.79980469 216.06225586 C415.62033995 217.29916293 419.44014795 218.53828115 423.2590332 219.78027344 C425.07804243 220.37146258 426.89774941 220.96050375 428.7175293 221.54931641 C434.15788793 223.33042745 439.49424437 225.25526393 444.79223633 227.42382812 C447.34987329 228.46789624 449.92146658 229.46895265 452.4987793 230.46337891 C454.22924805 231.13916016 455.9597168 231.81494141 457.69018555 232.49072266 C459.01566406 232.99829102 459.01566406 232.99829102 460.36791992 233.51611328 C461.21547852 233.84933594 462.06303711 234.18255859 462.9362793 234.52587891 C463.69481201 234.81986572 464.45334473 235.11385254 465.23486328 235.41674805 C467.36290586 236.48347284 468.67803075 237.66044687 470.25268555 239.42822266 C469.25268555 242.42822266 469.25268555 242.42822266 467.20800781 243.70288086 C460.00467488 246.93900992 452.90863215 248.99537904 445.19018555 250.61572266 C443.40257812 251.00123291 443.40257812 251.00123291 441.57885742 251.39453125 C433.7123133 253.04208085 425.94311992 254.21661811 417.94799805 254.94775391 C412.30686304 255.48018933 406.72587194 256.3767126 401.12768555 257.24072266 C389.02652016 259.08645237 376.89886687 260.66201797 364.75268555 262.17822266 C363.85499451 262.29090485 362.95730347 262.40358704 362.03240967 262.51968384 C359.47071222 262.84057855 356.90866806 263.15850645 354.34643555 263.47509766 C353.57264557 263.57177231 352.79885559 263.66844696 352.00161743 263.76805115 C349.06327414 264.12726207 346.21616858 264.42822266 343.25268555 264.42822266 C343.38545898 265.45818359 343.51823242 266.48814453 343.6550293 267.54931641 C345.95496637 285.86403271 346.55311003 303.97129281 346.25268555 322.42822266 C346.24011719 323.22341309 346.22754883 324.01860352 346.21459961 324.83789062 C345.77140891 345.31963232 341.66908257 365.51808155 337.18359375 385.44140625 C336.93311279 386.55854004 336.68263184 387.67567383 336.42456055 388.82666016 C336.19865234 389.81327637 335.97274414 390.79989258 335.73999023 391.81640625 C335.13041097 394.64076552 335.13041097 394.64076552 335.25268555 398.42822266 C336.14084961 398.91548828 337.02901367 399.40275391 337.9440918 399.90478516 C349.23565699 406.15205 360.24039258 412.83728346 371.23852539 419.58447266 C374.23380913 421.41667603 377.23598936 423.2369681 380.2409668 425.05322266 C389.27386813 430.51509814 398.28802791 436.00501859 407.19018555 441.67822266 C407.91254395 442.13221436 408.63490234 442.58620605 409.37915039 443.05395508 C411.04017305 444.12405684 412.65286239 445.2686193 414.25268555 446.42822266 C414.25268555 447.08822266 414.25268555 447.74822266 414.25268555 448.42822266 C411.92754213 450.01701973 409.60404348 451.48503262 407.19018555 452.92822266 C405.69684043 453.84039268 404.2046761 454.75449826 402.71362305 455.67041016 C401.95791016 456.13415039 401.20219727 456.59789062 400.42358398 457.07568359 C397.33869935 458.99766525 394.32494997 461.01635026 391.31518555 463.05322266 C383.56202726 468.27725889 375.68055661 473.2962974 367.79931641 478.32421875 C361.13715562 482.57636399 354.49617214 486.85845073 347.87768555 491.17822266 C340.75606454 495.82393154 333.5877147 500.38866193 326.38916016 504.9140625 C320.7060449 508.49334066 315.06498097 512.1330727 309.44018555 515.80322266 C302.09260584 520.59673734 294.71642704 525.34295172 287.31518555 530.05322266 C286.38536865 530.64538574 285.45555176 531.23754883 284.49755859 531.84765625 C277.5169674 536.28335424 277.5169674 536.28335424 274.52783203 537.921875 C271.9570411 539.28774799 271.9570411 539.28774799 271.25268555 542.42822266 C271.81213867 542.67056641 272.3715918 542.91291016 272.94799805 543.16259766 C282.04909784 548.16048975 289.66894302 557.72735837 296.98443604 564.98474121 C298.40242219 566.39077755 299.82432844 567.79285701 301.24633789 569.19482422 C306.60100199 574.54280096 311.55890626 580.04403223 316.26123047 585.9753418 C318.20883487 588.37421165 320.25257886 590.62388701 322.37768555 592.86572266 C329.65132259 600.85271115 335.86573066 609.73177931 342.25268555 618.42822266 C342.95893066 619.38003418 342.95893066 619.38003418 343.67944336 620.35107422 C355.2654681 635.96857177 365.42851418 652.66036512 375.25268555 669.42822266 C375.58961426 669.99911621 375.92654297 670.57000977 376.27368164 671.15820312 C384.50220133 685.12663621 391.56006686 699.67057488 398.25268555 714.42822266 C398.81342773 715.60255859 399.37416992 716.77689453 399.9519043 717.98681641 C401.26893581 721.47121509 401.35980404 723.75885131 401.25268555 727.42822266 C390.80606558 732.10876944 380.21288467 736.0622842 369.37768555 739.74072266 C368.55088287 740.0223526 367.7240802 740.30398254 366.8722229 740.59414673 C317.71591985 757.286045 266.78778732 768.39580401 215.65435791 777.0213623 C213.17714765 777.44101931 210.70095316 777.86632259 208.22485352 778.29248047 C180.30317772 783.08106858 152.36592036 786.66686731 124.14685059 789.17108154 C122.25756909 789.33894065 120.36847861 789.50896779 118.47961426 789.68145752 C69.69896828 794.13474992 20.0963879 793.93223939 -28.74731445 790.42822266 C-29.43051758 790.37966125 -30.1137207 790.33109985 -30.81762695 790.28106689 C-71.05769783 787.36850583 -111.56532183 780.76803877 -151.12133789 772.9375 C-153.90185394 772.39825154 -156.68679428 771.88941941 -159.47387695 771.38525391 C-179.06955823 767.79947451 -198.40239285 763.1610446 -217.74731445 758.42822266 C-218.81701477 758.16720261 -218.81701477 758.16720261 -219.9083252 757.90090942 C-228.57678662 755.78064254 -237.18954675 753.52673431 -245.74731445 750.99072266 C-246.77928955 750.68634277 -247.81126465 750.38196289 -248.87451172 750.06835938 C-251.83344363 749.192717 -254.79053554 748.31110222 -257.74731445 747.42822266 C-258.48449707 747.21053223 -259.22167969 746.9928418 -259.98120117 746.76855469 C-277.65743352 741.53583222 -296.31885085 735.88041289 -312.74731445 727.42822266 C-312.43257923 719.47132282 -309.15034548 713.07223015 -305.74731445 705.99072266 C-305.14860963 704.72707629 -304.55030561 703.46323996 -303.95239258 702.19921875 C-299.48393097 692.79527859 -294.87305674 683.49286735 -289.74731445 674.42822266 C-289.07659912 673.23712891 -289.07659912 673.23712891 -288.39233398 672.02197266 C-276.27869506 650.66746238 -262.70014874 629.90870087 -247.74731445 610.42822266 C-247.3090332 609.85394531 -246.87075195 609.27966797 -246.41918945 608.68798828 C-239.50922453 599.66333582 -232.25109658 590.96380707 -224.74731445 582.42822266 C-223.95711914 581.52458984 -223.16692383 580.62095703 -222.3527832 579.68994141 C-216.30358917 572.93712545 -209.938169 566.49147522 -203.55288696 560.05856323 C-202.52596421 559.02354163 -201.50052089 557.98704981 -200.47665405 556.94900513 C-191.20199915 547.55956067 -191.20199915 547.55956067 -186.54418945 544.42431641 C-185.6212207 543.76560547 -184.69825195 543.10689453 -183.74731445 542.42822266 C-183.74731445 541.43822266 -183.74731445 540.44822266 -183.74731445 539.42822266 C-186.03032692 537.78125808 -188.26488383 536.34855599 -190.68481445 534.92822266 C-192.17133134 534.02856715 -193.6569823 533.1274796 -195.1418457 532.22509766 C-195.90964355 531.76167969 -196.67744141 531.29826172 -197.46850586 530.82080078 C-200.98088984 528.67438571 -204.42595675 526.42857654 -207.87231445 524.17822266 C-221.3583915 515.41297882 -234.95236684 506.81595037 -248.55981445 498.24072266 C-255.11923862 494.1062443 -261.64485713 489.92348755 -268.14550781 485.69726562 C-271.99969174 483.19498499 -275.86603489 480.71417257 -279.7512207 478.26025391 C-291.64750796 470.74444617 -303.40661647 463.04859921 -315.08862305 455.20532227 C-315.65094635 454.82821106 -316.21326965 454.45109985 -316.79263306 454.06256104 C-318.32620576 453.03358062 -319.85857667 452.00280972 -321.39086914 450.97192383 C-323.63911277 449.43397322 -323.63911277 449.43397322 -325.74731445 448.42822266 C-324.29824121 444.08100292 -320.96497888 442.88204647 -317.18481445 440.67822266 C-315.52378496 439.68749775 -313.86367471 438.69523051 -312.2043457 437.70166016 C-311.31569824 437.1715332 -310.42705078 436.64140625 -309.51147461 436.09521484 C-304.75831445 433.22870914 -300.0697785 430.25977475 -295.37231445 427.30322266 C-286.1871962 421.54231529 -276.95272893 415.86702882 -267.68481445 410.24072266 C-267.08590393 409.87678406 -266.48699341 409.51284546 -265.86993408 409.13787842 C-262.16907061 406.89011002 -258.46184747 404.65332546 -254.74731445 402.42822266 C-253.99208496 401.97495605 -253.23685547 401.52168945 -252.45874023 401.0546875 C-247.99386504 398.42822266 -247.99386504 398.42822266 -245.74731445 398.42822266 C-245.908125 397.75581543 -246.06893555 397.0834082 -246.23461914 396.390625 C-255.92649432 355.66677572 -265.77118932 306.08935522 -254.74731445 264.42822266 C-255.86879883 264.33025391 -256.9902832 264.23228516 -258.14575195 264.13134766 C-362.81511824 254.71635347 -362.81511824 254.71635347 -382.74731445 241.42822266 C-380.84956512 236.3032662 -376.92779141 235.16404597 -372.2331543 232.93603516 C-366.45017041 230.43458478 -360.53734279 228.41003247 -354.55981445 226.42822266 C-353.27597028 225.99548251 -351.99244418 225.56179761 -350.70922852 225.12719727 C-348.19575413 224.27636425 -345.68119334 223.42907873 -343.16577148 222.58398438 C-338.7610666 221.09477762 -334.37680201 219.55222394 -329.99731445 217.99072266 C-322.29338597 215.25983188 -314.56938766 212.67959508 -306.76293945 210.25634766 C-297.72834603 207.44089543 -288.72456431 204.53220237 -279.72509766 201.60668945 C-277.02543151 200.72955143 -274.32486699 199.85521682 -271.62426758 198.98095703 C-269.89048877 198.41797486 -268.1567628 197.85482997 -266.4230957 197.29150391 C-265.62414383 197.03315262 -264.82519196 196.77480133 -264.00202942 196.50862122 C-260.19348685 195.26770565 -256.44441926 193.97871068 -252.74731445 192.42822266 C-253.43793136 185.93642371 -254.69604809 179.6704832 -256.12231445 173.30322266 C-256.76855387 170.38317786 -257.41391214 167.46294856 -258.05712891 164.54223633 C-258.52729379 162.42092289 -259.00531656 160.30133933 -259.49023438 158.18334961 C-261.42321964 149.54786043 -262.81203571 140.90683246 -264 132.14477539 C-264.30635264 129.89118841 -264.62289183 127.63920738 -264.94067383 125.38720703 C-267.59793319 106.29837357 -269.12079334 87.43805417 -269.11791992 68.15307617 C-269.1223158 64.86471555 -269.15888196 61.57767825 -269.1965332 58.28955078 C-269.38535653 22.68886121 -269.38535653 22.68886121 -259.74731445 10.42822266 C-259.08731445 9.76822266 -258.42731445 9.10822266 -257.74731445 8.42822266 C-251.75465369 8.70649956 -247.0267694 10.23886569 -241.62231445 12.74072266 C-240.85806152 13.08828613 -240.09380859 13.43584961 -239.30639648 13.79394531 C-217.30885669 24.00945276 -196.88531432 36.59150172 -177.74731445 51.42822266 C-176.55084424 52.34507775 -175.35423372 53.26174979 -174.1574707 54.17822266 C-167.27135017 59.48767762 -160.64385734 65.04445462 -154.10424805 70.77441406 C-149.10361583 75.15046348 -143.99086708 79.34442049 -138.74731445 83.42822266 C-136.29839583 80.97930404 -135.5161768 78.76820617 -134.20825195 75.55712891 C-133.71421875 74.35209717 -133.22018555 73.14706543 -132.71118164 71.90551758 C-132.45187866 71.26649506 -132.19257568 70.62747253 -131.92541504 69.96908569 C-131.11737901 67.97856465 -130.30294186 65.99077855 -129.48657227 64.00366211 C-127.90273026 60.14684773 -126.32480341 56.2876399 -124.74731445 52.42822266 C-120.14834694 41.1875334 -115.31408936 30.20714353 -109.74731445 19.41064453 C-108.71009518 17.35443835 -107.72422697 15.27932692 -106.74731445 13.19384766 C-101.88430228 2.89926514 -96.7172376 -6.87038171 -85.74731445 -11.57177734 C-57.04549125 -15.87112069 -27.78012892 -6.54248903 0 0 Z " fill="#FDFDFD" transform="translate(467.747314453125,120.57177734375)"/>
<path d="M0 0 C1.67545679 -0.00645376 3.35091254 -0.01318385 5.02636719 -0.02017212 C8.54315784 -0.03211478 12.05985068 -0.03585751 15.57666016 -0.03466797 C19.1077979 -0.03450755 22.63840507 -0.04805154 26.16943359 -0.07568359 C55.6574185 -0.30274494 84.65023033 1.16299054 113.5 7.7734375 C115.4171582 8.18432617 115.4171582 8.18432617 117.37304688 8.60351562 C133.55019083 12.16134749 149.17374258 17.31231142 164.8125 22.7109375 C166.49938461 23.28976545 168.18631533 23.86845903 169.87329102 24.44702148 C178.97452431 27.57634125 188.02861577 30.80075655 197.02734375 34.21508789 C202.86786019 36.39619071 208.78328335 38.02875138 214.8359375 39.51171875 C217.9375 40.3359375 217.9375 40.3359375 220.10668945 41.35986328 C223.83978213 42.6470478 227.42579811 42.71693507 231.33203125 42.77734375 C232.14808334 42.79397064 232.96413544 42.81059753 233.80491638 42.82772827 C236.45347545 42.87004098 239.10112652 42.88886606 241.75 42.8984375 C242.65254517 42.90239532 243.55509033 42.90635315 244.48498535 42.91043091 C258.63404425 42.91027369 271.06290907 41.44935266 284.3671875 36.32373047 C286.93477434 35.336985 289.51857066 34.43708249 292.125 33.55859375 C296.26961981 32.15562228 300.39066065 30.69639795 304.50634766 29.2109375 C311.12696033 26.82810201 317.77319676 24.51691532 324.42089844 22.2109375 C326.08934272 21.63083425 327.7566794 21.04753485 329.42285156 20.4609375 C357.03014789 10.76429402 385.33567565 3.75571972 414.54833984 1.56958008 C416.40023069 1.38847855 418.24423342 1.1258185 420.08135986 0.83041382 C424.08405852 0.31714417 427.99855113 0.18813285 432.02490234 0.19067383 C433.18980949 0.18563591 433.18980949 0.18563591 434.37825012 0.18049622 C436.92666252 0.17105491 439.47500874 0.16904663 442.0234375 0.16796875 C443.80791246 0.16475169 445.59238716 0.16138729 447.37686157 0.15788269 C451.11062227 0.15190867 454.84435987 0.15004104 458.578125 0.15063477 C463.34472381 0.15073635 468.11117354 0.13708026 472.87773705 0.11986256 C476.56164216 0.10870401 480.24551164 0.10671673 483.92943192 0.10724449 C485.68596536 0.10607034 487.44249991 0.10168051 489.19901657 0.09391212 C506.40639245 0.02492644 506.40639245 0.02492644 513.9375 2.3359375 C516.5946335 4.993071 515.17973959 12.71255036 515.1875 16.2734375 C515.17749228 27.62576233 514.61368311 38.3012647 511.9375 49.3359375 C511.74945801 50.12919434 511.56141602 50.92245117 511.36767578 51.73974609 C505.55965508 75.53091441 496.16342321 99.7038888 479.9375 118.3359375 C479.23882813 119.15578125 478.54015625 119.975625 477.8203125 120.8203125 C465.93738284 134.4370504 451.78684588 145.66194019 435.9375 154.3359375 C435.37901367 154.64241211 434.82052734 154.94888672 434.24511719 155.26464844 C423.84495752 160.90196396 413.26377007 164.96551915 401.9375 168.3359375 C400.90238281 168.65433594 399.86726563 168.97273437 398.80078125 169.30078125 C382.0432622 173.9984958 364.14671235 173.70885918 346.89672852 173.70654297 C343.27246867 173.71091042 339.64943626 173.7473572 336.02539062 173.78515625 C320.59787049 173.85894172 306.04651985 172.40889674 290.9375 169.3359375 C289.02326938 168.95713519 287.10896384 168.57871121 285.19458008 168.20068359 C282.0385488 167.57331973 278.88726793 166.92737907 275.73828125 166.265625 C245.76073748 160.31602952 217.19016444 163.78877641 187.72094727 170.67260742 C186.40694946 170.97581909 186.40694946 170.97581909 185.06640625 171.28515625 C183.93827515 171.55332153 183.93827515 171.55332153 182.78735352 171.8269043 C174.63523973 173.28301303 166.4738464 173.50504848 158.2109375 173.5390625 C157.10561676 173.54476257 156.00029602 173.55046265 154.86148071 173.55633545 C152.526804 173.56573714 150.19211431 173.57230008 147.85742188 173.57617188 C144.37084151 173.58577678 140.88487746 173.6168055 137.3984375 173.6484375 C98.2136859 173.83464528 63.25861333 165.89122374 31.9375 141.3359375 C31.06182373 140.656521 31.06182373 140.656521 30.16845703 139.96337891 C24.50165657 135.53012326 19.20422754 130.93795951 14.62890625 125.359375 C12.93294 123.27788538 12.93294 123.27788538 10.90234375 121.25 C-17.43006873 91.96817687 -27.77546179 46.55451579 -27.16796875 7.1015625 C-27.13361827 5.51300321 -27.098605 3.92445789 -27.0625 2.3359375 C-18.11558503 -0.06296525 -9.18288604 0.00843119 0 0 Z " fill="#030302" transform="translate(268.0625,366.6640625)"/>
<path d="M0 0 C0.82057892 -0.00013092 1.64115784 -0.00026184 2.48660278 -0.00039673 C4.84050064 0.0063576 7.19323913 0.0315277 9.546875 0.06640625 C10.25108078 0.07199554 10.95528656 0.07758484 11.68083191 0.08334351 C15.62025632 0.17733308 18.69572674 0.71753782 22.25 2.4375 C21.13059756 10.13965709 18.73674399 16.5084858 15.25 23.4375 C14.6828125 24.61699219 14.115625 25.79648437 13.53125 27.01171875 C3.0981881 48.13524617 -13.38527763 62.8156906 -35.7800293 70.6472168 C-43.40871272 73.2235165 -50.37777826 74.58887736 -58.4296875 74.67578125 C-59.52532516 74.68788887 -59.52532516 74.68788887 -60.64309692 74.70024109 C-62.18782225 74.71401732 -63.73257719 74.72476811 -65.27734375 74.73266602 C-66.824638 74.74409051 -68.3718959 74.76438784 -69.91894531 74.79418945 C-81.2032199 75.01082235 -90.91744228 73.69383433 -101.75 70.4375 C-102.92385254 70.09468994 -104.09770508 69.75187988 -105.30712891 69.39868164 C-111.33201408 67.59708925 -115.88042746 65.42169572 -120.75 61.4375 C-120.36710354 56.39447348 -117.67709333 53.66505454 -114.3125 50.1875 C-113.76827393 49.61467285 -113.22404785 49.0418457 -112.66333008 48.45166016 C-82.2690364 16.79186265 -43.8798828 -0.07419265 0 0 Z " fill="#FBFBFB" transform="translate(681.75,416.5625)"/>
<path d="M0 0 C1.04152725 -0.00101212 1.04152725 -0.00101212 2.10409546 -0.00204468 C13.4106235 0.01539235 24.27209374 0.68902905 35.3125 3.25 C36.05177734 3.41628906 36.79105469 3.58257812 37.55273438 3.75390625 C68.23481965 10.8647758 104.41785965 31.40803948 122.3125 58.25 C122.3125 59.24 122.3125 60.23 122.3125 61.25 C108.17970433 73.21342748 85.89898566 74.86147782 68.125 74.75 C67.35692017 74.74790527 66.58884033 74.74581055 65.79748535 74.74365234 C41.23947592 74.60572187 20.98244174 67.73832099 3.3125 50.25 C-6.66073227 39.80927247 -13.40192868 27.98562547 -18.75 14.6875 C-19.06155029 13.92550293 -19.37310059 13.16350586 -19.6940918 12.37841797 C-21.25265091 8.31123467 -22.17812385 5.55151454 -20.6875 1.25 C-13.80467851 -0.04935796 -6.98169967 0.00606666 0 0 Z " fill="#FCFCFC" transform="translate(341.6875,416.75)"/>
<path d="M0 0 C31.02 0 62.04 0 94 0 C92.57308684 3.56728291 91.72341295 5.66611505 89.56640625 8.56640625 C89.08776123 9.2109375 88.60911621 9.85546875 88.1159668 10.51953125 C87.60332275 11.19371094 87.09067871 11.86789062 86.5625 12.5625 C86.03116455 13.26632812 85.4998291 13.97015625 84.95239258 14.6953125 C80.72593853 20.21619247 76.21402053 25.3552898 71.44140625 30.40625 C69.42048422 32.55327757 67.51218419 34.7372337 65.625 37 C62.37919727 40.71964254 58.88049326 44.15538721 55.3125 47.5625 C54.75320801 48.11228516 54.19391602 48.66207031 53.61767578 49.22851562 C51.98828125 50.75390625 51.98828125 50.75390625 49 53 C40.85229083 52.00312229 33.63137298 42.9468241 28.66015625 36.94140625 C26.95797251 34.95085256 25.14678419 33.1798189 23.25 31.375 C18.04321253 26.24909466 13.71125382 20.44273268 9.27783203 14.65380859 C6.9837586 11.68474986 4.60943883 8.77811378 2.2421875 5.8671875 C1 4 1 4 0 0 Z " fill="#070707" transform="translate(465,566)"/>
</svg>
