<?xml version="1.0" standalone="no"?>
<!DOCTYPE svg PUBLIC "-//W3C//DTD SVG 20010904//EN"
 "http://www.w3.org/TR/2001/REC-SVG-20010904/DTD/svg10.dtd">
<svg version="1.0" xmlns="http://www.w3.org/2000/svg"
 width="1024.000000pt" height="1024.000000pt" viewBox="0 0 1024.000000 1024.000000"
 preserveAspectRatio="xMidYMid meet">

<g transform="translate(0.000000,1024.000000) scale(0.100000,-0.100000)"
fill="#000000" stroke="none">
<path d="M0 5120 l0 -5120 5120 0 5120 0 0 5120 0 5120 -5120 0 -5120 0 0
-5120z m4287 3996 c92 -19 238 -50 323 -69 484 -110 500 -110 845 -38 132 27
310 66 395 85 395 91 555 88 660 -10 60 -57 158 -249 316 -622 98 -232 112
-262 123 -262 6 0 32 19 58 43 206 182 466 381 623 475 130 78 366 194 442
218 66 20 72 18 110 -53 47 -86 59 -174 65 -458 8 -372 -27 -681 -123 -1114
-25 -112 -44 -204 -42 -206 2 -1 165 -55 363 -120 389 -128 769 -259 852 -295
28 -12 59 -31 69 -41 23 -26 9 -39 -70 -68 -125 -46 -367 -87 -941 -161 -131
-17 -241 -33 -243 -35 -2 -2 1 -48 7 -102 40 -367 15 -722 -76 -1110 -24 -100
-25 -117 -13 -125 341 -199 790 -477 790 -488 0 -5 -175 -118 -1137 -737 -256
-165 -321 -213 -284 -213 17 0 301 -282 418 -415 259 -293 511 -664 708 -1040
85 -162 175 -365 168 -381 -7 -18 -96 -55 -298 -124 -773 -263 -1771 -455
-2715 -522 -231 -16 -978 -16 -1185 0 -886 70 -1876 264 -2620 513 -243 82
-325 116 -325 138 0 45 133 325 260 550 154 271 341 543 535 776 114 138 385
418 457 472 26 20 48 43 48 49 0 7 -136 99 -303 205 -444 282 -664 424 -1019
654 -59 39 -108 72 -108 75 0 10 627 400 748 465 28 15 52 34 52 41 0 7 -13
68 -30 136 -44 182 -67 332 -81 523 -12 176 -7 449 11 584 5 41 8 76 7 78 -4
3 -123 19 -367 48 -471 56 -763 112 -873 167 -89 45 -28 72 688 310 314 104
574 193 579 198 5 5 -3 55 -18 117 -65 268 -113 561 -136 833 -16 181 -13 539
5 642 22 130 63 228 102 242 26 10 126 -28 283 -107 287 -145 453 -263 892
-635 16 -14 19 -12 34 24 168 409 341 778 393 836 41 48 88 76 143 88 77 16
256 2 435 -34z"/>
<path d="M2470 6557 l-55 -12 -3 -104 c-7 -260 62 -541 199 -808 184 -361 538
-638 947 -742 270 -69 780 -72 1069 -6 251 58 497 78 666 55 50 -6 166 -27
257 -45 264 -53 328 -58 642 -52 299 6 376 15 538 61 249 72 472 207 670 406
109 109 181 211 250 355 118 247 177 493 183 768 2 111 3 110 -82 128 -81 17
-850 6 -1001 -15 -342 -46 -591 -113 -1095 -294 -77 -27 -191 -64 -253 -82
l-113 -32 -192 5 c-220 6 -219 5 -628 150 -420 149 -619 201 -949 249 -125 18
-203 21 -570 24 -304 2 -441 0 -480 -9z m1195 -502 c260 -39 452 -122 683
-295 93 -69 292 -259 292 -278 0 -22 -81 -71 -158 -96 -148 -48 -228 -59 -416
-53 -148 4 -183 8 -261 31 -207 63 -371 193 -490 392 -42 69 -117 259 -113
282 2 11 17 19 38 23 70 13 326 9 425 -6z m3366 -2 c9 -9 5 -33 -21 -105 -104
-299 -303 -501 -575 -584 -86 -27 -100 -28 -295 -28 -194 0 -210 1 -304 27
-111 31 -219 83 -224 108 -5 25 84 125 189 215 258 220 463 318 774 369 102
17 439 15 456 -2z"/>
<path d="M4663 4572 c-15 -10 12 -52 111 -172 125 -152 323 -350 350 -350 18
0 157 135 255 246 112 128 214 267 204 278 -9 9 -906 7 -920 -2z"/>
</g>
</svg>